# xmcd CD database file
#
# Track frame offsets:
#	150
#	18722
#	38100
#
# Disc length: 754 seconds
#
# Revision: 1
# Processed by: cddbd v1.5.2PL0 Copyright (c) Steve Scherf et al.
# Submitted via: CDex 1.70beta2
#
DISCID=1e02f003
DTITLE=WANDS - 時の扉
DYEAR=1993
DGENRE=JPop
TTITLE0=時の扉
TTITLE1=声にならないほどに愛しい
TTITLE2=時の扉（オリジナル・カラオケ）
EXTD=YEAR: 1993
EXTT0=
EXTT1=
EXTT2=
PLAYORDER=
